<?xml version="1.0" standalone="no"?>
<!DOCTYPE svg PUBLIC "-//W3C//DTD SVG 1.1//EN" "http://www.w3.org/Graphics/SVG/1.1/DTD/svg11.dtd">
<svg xmlns="http://www.w3.org/2000/svg"><metadata>This SVG WebFont was generated by YouWorkForThem.
Copyright (c) 2008 by TipografiaRamis. All rights reserved.</metadata><defs><font horiz-adv-x="1228" id="ywftsvg"><font-face ascent="1536" bbox="0 -428 1229 1864" cap-height="1434" descent="-512" font-family="" font-stretch="normal" font-weight="400" panose-1="2 0 5 9 0 0 0 2 0 4" underline-position="0" underline-thickness="0" unicode-range="U+0020-FB02" units-per-em="2048" x-height="1024"/><missing-glyph/><glyph glyph-name=".notdef"/><glyph glyph-name="glyph1" horiz-adv-x="0"/><glyph glyph-name="glyph2"/><glyph glyph-name="space" unicode=" "/><glyph d="M514 0v201h201v-201h-201zM696 1434v-1096h-166v1096h166z" glyph-name="exclam" unicode="!"/><glyph d="M408 950v484h145v-484h-145zM676 950v484h145v-484h-145z" glyph-name="quotedbl" unicode="&quot;"/><glyph d="M1026 547v-154h-188l-56 -393h-157l53 393h-217l-55 -393h-156l55 393h-170v154h193l45 323h-172v154h194l58 410h155l-59 -410h219l59 410h160l-59 -410h164v-154h-185l-47 -323h166zM481 547h219l45 323h-217z" glyph-name="numbersign" unicode="#"/><glyph d="M532 -98v100q-137 18 -223 122.5t-86 248.5v61h170v-61q0 -90 59.5 -152.5t149.5 -62.5h25q88 0 147.5 58t59.5 150t-61.5 162t-148.5 113t-173 89t-147.5 129t-61.5 210t82 229.5t208 131.5v102h162v-102q133 -27 215 -130.5t82 -259.5h-172q0 104 -55.5 169t-145.5 65 t-146 -57.5t-56 -139.5t60.5 -139t147.5 -99t174 -92.5t147.5 -144.5t60.5 -233t-87.5 -244t-224.5 -123v-100h-162z" glyph-name="dollar" unicode="$"/><glyph d="M647 1239v-186q0 -90 -67.5 -151.5t-161.5 -61.5h-15q-92 0 -160.5 62.5t-68.5 150.5v186q0 90 67.5 152.5t161.5 62.5h15q94 0 161.5 -62.5t67.5 -152.5zM518 1053v186q0 43 -31.5 72.5t-76.5 29.5t-76 -29.5t-31 -72.5v-186q0 -43 32 -73t76 -30t75.5 30t31.5 73z M102 573l1024 396v-113l-1024 -399v116zM1055 379v-186q0 -90 -67.5 -151.5t-162.5 -61.5h-14q-92 0 -160.5 62t-68.5 151v186q0 90 67.5 152.5t161.5 62.5h14q94 0 162 -62.5t68 -152.5zM926 193v186q0 43 -32 72.5t-77 29.5t-75.5 -29.5t-30.5 -72.5v-186q0 -43 31.5 -73 t75.5 -30t76 30t32 73z" glyph-name="percent" unicode="%"/><glyph d="M909 1434v-162h-471v-15l332 -761l74 -199l6 57v318h170v-316q0 -145 -86 -237l53 -119h-186l-13 29q-92 -49 -186 -49h-12q-160 0 -271.5 110.5t-111.5 267.5v293q0 98 50 175t132 116l-121 272v220h641zM597 141q91 0 130 25l-272 625q-76 -51 -76 -142v-293 q0 -90 63.5 -152.5t154.5 -62.5z" glyph-name="ampersand" unicode="&amp;"/><glyph d="M541 934v483h147v-483h-147z" glyph-name="quotesingle" unicode="'"/><glyph d="M815 -227v-162q-168 0 -285.5 110.5t-117.5 268.5v1089q0 156 117.5 266.5t285.5 110.5v-166q-100 0 -166.5 -61.5t-66.5 -151.5v-1089q0 -92 66.5 -153.5t166.5 -61.5z" glyph-name="parenleft" unicode="("/><glyph d="M412 -389v162q100 0 165.5 61.5t65.5 153.5v1089q0 92 -65.5 152.5t-165.5 60.5v166q168 0 286.5 -110.5t118.5 -266.5v-1089q0 -156 -118.5 -267.5t-286.5 -111.5z" glyph-name="parenright" unicode=")"/><glyph d="M545 1432h139v-148l150 47l40 -125l-151 -55l94 -123l-112 -80l-91 119l-79 -119l-115 76l84 125l-150 43l41 131l150 -43v152z" glyph-name="asterisk" unicode="*"/><glyph d="M528 1057h170v-371h381v-166h-381v-375h-170v375h-381v166h381v371z" glyph-name="plus" unicode="+"/><glyph d="M516 0v201h201v-187l-86 -254h-119l70 240h-66z" glyph-name="comma" unicode=","/><glyph d="M864 680v-160h-499v160h499z" glyph-name="hyphen" unicode="-"/><glyph d="M514 0v201h201v-201h-201z" glyph-name="period" unicode="."/><glyph d="M186 -369l684 1803h172l-686 -1803h-170z" glyph-name="slash" unicode="/"/><glyph d="M987 1077v-721q0 -156 -107.5 -266t-258.5 -110h-15q-154 0 -259 110.5t-105 267.5v719q0 158 105.5 267.5t258.5 109.5h15q152 0 259 -110.5t107 -266.5zM817 354v721q0 90 -59.5 153.5t-144.5 63.5t-144 -63.5t-59 -153.5v-719q0 -90 59 -152.5t144 -62.5t144.5 61.5 t59.5 151.5z" glyph-name="zero" unicode="0"/><glyph d="M221 0v158h305v1114l-278 -43v162l268 43h182v-1276h308v-158h-785z" glyph-name="one" unicode="1"/><glyph d="M410 1044h-172q0 176 113.5 293t274.5 117t271.5 -107.5t110.5 -271.5t-95.5 -272t-219.5 -213t-212 -194.5t-88 -233.5h615v-162h-787v150q0 135 63.5 248.5t153.5 193.5t244 205t154 295q0 84 -62.5 142t-151.5 58t-150.5 -72t-61.5 -176z" glyph-name="two" unicode="2"/><glyph d="M301 1272v162h668v-152l-244 -317q111 -14 195 -105.5t84 -214.5v-287q0 -158 -112 -268t-271 -110h-15q-160 0 -271.5 109.5t-111.5 266.5v41h172v-43q0 -90 63.5 -151.5t154.5 -61.5t154.5 62.5t63.5 152.5v287q0 66 -47 114t-114 48h-154v153l234 314h-449z" glyph-name="three" unicode="3"/><glyph d="M203 303v160l459 971h184l-447 -965h334v369h172v-369h119v-166h-119v-303h-172v303h-530z" glyph-name="four" unicode="4"/><glyph d="M225 356v41h172v-43q0 -90 63.5 -151.5t154.5 -61.5t153.5 62.5t62.5 152.5v234q0 90 -63 152.5t-152 62.5h-14q-61 0 -108.5 -34t-65.5 -75l-158 47l60 691h624v-166h-460l-35 -338q68 37 149 37h13q160 0 271.5 -109.5t111.5 -265.5v-234q0 -158 -112 -268t-271 -110 h-13q-160 0 -271.5 109t-111.5 267z" glyph-name="five" unicode="5"/><glyph d="M395 1073v-194q88 88 211 88h15q160 0 271.5 -109.5t111.5 -265.5v-234q0 -158 -112 -268t-271 -110h-15q-160 0 -270.5 109.5t-110.5 266.5v719q0 158 108.5 268.5t266.5 110.5h10q160 0 269.5 -110.5t109.5 -270.5h-174q0 92 -59.5 154.5t-149.5 62.5t-150.5 -63.5 t-60.5 -153.5zM602 805q-78 0 -142.5 -64.5t-64.5 -150.5v-236q0 -90 63.5 -151.5t154.5 -61.5t154.5 62.5t63.5 152.5v234q0 90 -63 152.5t-154 62.5h-12z" glyph-name="six" unicode="6"/><glyph d="M653 0h-176q0 211 79 483.5t160 493.5t85 295h-545v162h717v-150q0 -120 -109.5 -420.5t-160 -505t-50.5 -358.5z" glyph-name="seven" unicode="7"/><glyph d="M985 1096v-76q0 -170 -129 -275q147 -115 148 -301v-88q0 -158 -110 -267t-269 -109h-19q-160 0 -270.5 110.5t-110.5 267.5v86q0 184 150 301q-133 100 -133 277v74q0 150 105.5 254t256.5 104h19q152 0 257 -104t105 -254zM831 354v88q0 90 -63 153.5t-153.5 63.5 t-154 -63.5t-63.5 -153.5v-86q0 -90 64.5 -152.5t154.5 -62.5t152.5 61.5t62.5 151.5zM813 1018v69q0 86 -58.5 145.5t-142.5 59.5t-141 -59t-57 -146v-67q0 -80 54 -139.5t138 -59.5h19q78 0 133 56.5t55 140.5z" glyph-name="eight" unicode="8"/><glyph d="M834 360v195q-88 -88 -211 -88h-15q-160 0 -271.5 109.5t-111.5 265.5v233q0 158 112 268.5t271 110.5h15q160 0 270.5 -109.5t110.5 -267.5v-719q0 -158 -109 -268t-266 -110h-11q-160 0 -269 110.5t-109 269.5h174q0 -92 59 -154.5t149 -62.5t151 63.5t61 153.5z M627 629q78 0 142.5 64.5t64.5 150.5v235q0 90 -63 151.5t-155 61.5t-155.5 -62.5t-63.5 -152.5v-233q0 -90 63.5 -152.5t153.5 -62.5h13z" glyph-name="nine" unicode="9"/><glyph d="M514 0v201h201v-201h-201zM514 823v201h201v-201h-201z" glyph-name="colon" unicode=":"/><glyph d="M516 823v201h201v-201h-201zM516 0v201h201v-187l-86 -254h-119l70 240h-66z" glyph-name="semicolon" unicode=";"/><glyph d="M190 522v150l848 383v-176l-643 -283l643 -281v-178z" glyph-name="less" unicode="&lt;"/><glyph d="M1067 502v-160h-907v160h907zM1067 854v-160h-907v160h907z" glyph-name="equal" unicode="="/><glyph d="M1038 672v-150l-848 -385v178l644 281l-644 283v176z" glyph-name="greater" unicode=">"/><glyph d="M397 1065h-170q0 176 111.5 281.5t275.5 105.5t274.5 -104t110.5 -282t-81.5 -259.5t-164.5 -167t-83 -301.5h-170q0 135 33.5 234.5t81 155.5t128 137.5t80.5 221.5q0 86 -61.5 142.5t-152.5 56.5t-151.5 -60.5t-60.5 -160.5zM481 0v203h207v-203h-207z" glyph-name="question" unicode="?"/><glyph d="M604 729v-436q0 -66 47 -115t115 -49t117 48t49 116v436q0 66 -49 113t-115 47t-115 -47t-49 -113zM762 1036q92 0 170 -71q-2 141 -84 238t-211 97h-31q-131 0 -224 -103t-93 -243v-811q0 -139 86 -241.5t213 -102.5h37v-153h-31q-195 0 -323 146.5t-128 350.5v811 q0 207 134.5 353.5t328.5 146.5h31q193 0 319.5 -141.5t126.5 -347.5v-965h-145v55q-78 -72 -176 -71q-131 0 -220 85t-89 216v448q0 127 89 215t220 88z" glyph-name="at" unicode="@"/><glyph d="M1008 0h-174v457h-443v-457h-172v612l248 822h293l248 -826v-608zM829 616l-196 656h-39l-195 -656h430z" glyph-name="A" unicode="A"/><glyph d="M625 1434q145 0 241.5 -93.5t96.5 -226.5v-113q0 -137 -117 -243q131 -106 131 -266v-148q0 -147 -106.5 -245.5t-252.5 -98.5h-368v1434h375zM629 1268h-207v-437h207q70 0 119 47.5t49 114.5v115q0 66 -49 113t-119 47zM422 676v-514h196q80 0 133.5 54t53.5 128v148 q0 61 -48 122.5t-139 61.5h-196z" glyph-name="B" unicode="B"/><glyph d="M1008 397v-41q0 -158 -113 -267t-274 -109h-11q-162 0 -275.5 110.5t-113.5 267.5v719q0 158 114 267.5t275 109.5h11q162 0 274.5 -110.5t112.5 -268.5h-172q0 88 -65 150.5t-157 62.5t-155.5 -61.5t-63.5 -151.5v-719q0 -90 63.5 -152.5t155.5 -62.5t157 62.5t65 150.5 v43h172z" glyph-name="C" unicode="C"/><glyph d="M997 1057v-680q0 -158 -112.5 -267.5t-274.5 -109.5h-379v1434h379q162 0 274.5 -109.5t112.5 -267.5zM823 375v680q0 90 -63.5 151.5t-155.5 61.5h-201v-1106h201q92 0 155.5 61.5t63.5 151.5z" glyph-name="D" unicode="D"/><glyph d="M256 1434h700v-162h-528v-436h479v-160h-479v-514h545v-162h-717v1434z" glyph-name="E" unicode="E"/><glyph d="M264 1434h701v-162h-529v-436h479v-160h-479v-676h-172v1434z" glyph-name="F" unicode="F"/><glyph d="M1020 737v-381q0 -156 -113.5 -266t-275.5 -110h-35q-162 0 -275.5 110.5t-113.5 267.5v719q0 158 113.5 267.5t275.5 109.5h35q162 0 275.5 -110.5t113.5 -268.5h-176q0 90 -62.5 151.5t-156.5 61.5h-23q-94 0 -157.5 -61.5t-63.5 -151.5v-719q0 -90 63.5 -152.5 t157.5 -62.5h23q94 0 156.5 61.5t62.5 151.5v221h-209v162h385z" glyph-name="G" unicode="G"/><glyph d="M834 1434h174v-1434h-174v676h-443v-676h-172v1434h172v-598h443v598z" glyph-name="H" unicode="H"/><glyph d="M219 1274v160h791v-160h-310v-1114h310v-160h-791v160h309v1114h-309z" glyph-name="I" unicode="I"/><glyph d="M303 1276v160h705v-1078q0 -158 -114 -268t-276 -110h-10q-162 0 -274.5 109.5t-112.5 266.5v111h172v-113q0 -88 64.5 -150.5t156.5 -62.5t156 62.5t64 152.5v920h-531z" glyph-name="J" unicode="J"/><glyph d="M1018 1434l-457 -680l479 -754h-198l-480 760l455 674h201zM362 1434v-1434h-174v1434h174z" glyph-name="K" unicode="K"/><glyph d="M260 1434h174v-1272h535v-162h-709v1434z" glyph-name="L" unicode="L"/><glyph d="M1032 1434v-1434h-174v1044l6 97l-8 2l-29 -96l-133 -369h-159l-134 366l-28 99l-8 -2l6 -97v-1044h-174v1434h219l194 -582h8l195 582h219z" glyph-name="M" unicode="M"/><glyph d="M836 1434h172v-1434h-193l-389 999l-39 125h-8l12 -135v-989h-172v1434h193l391 -1006l37 -123h8l-12 131v998z" glyph-name="N" unicode="N"/><glyph d="M1020 1077v-721q0 -156 -113.5 -266t-275.5 -110h-35q-162 0 -275.5 110.5t-113.5 267.5v719q0 158 113.5 267.5t275.5 109.5h35q162 0 275.5 -110.5t113.5 -266.5zM844 354v721q0 90 -62.5 151.5t-156.5 61.5h-23q-94 0 -157.5 -61.5t-63.5 -151.5v-719 q0 -90 63.5 -152.5t157.5 -62.5h23q94 0 156.5 61.5t62.5 151.5z" glyph-name="O" unicode="O"/><glyph d="M254 0v1434h391q137 0 232.5 -93.5t95.5 -226.5v-295q0 -135 -95.5 -228t-232.5 -93h-219v-498h-172zM799 813v299q0 66 -47 111t-115 45h-211v-609h211q68 0 115 45.5t47 108.5z" glyph-name="P" unicode="P"/><glyph d="M1001 1077v-721q0 -109 -57 -194l94 -103l-118 -108l-89 94q-98 -66 -219 -65h-34q-162 0 -276 110.5t-114 267.5v719q0 158 114 267.5t276 109.5h34q162 0 275.5 -110.5t113.5 -266.5zM825 354v721q0 90 -62.5 151.5t-156.5 61.5h-22q-94 0 -158 -61.5t-64 -151.5v-719 q0 -25 3 -34q91 102 217 102t235 -123q8 18 8 53zM586 139q78 0 133 31q-73 100 -147 100t-126 -84q62 -47 140 -47z" glyph-name="Q" unicode="Q"/><glyph d="M403 522v-522h-172v1434h392q137 0 232 -93.5t95 -226.5v-272q0 -98 -49 -175t-137 -116l233 -551h-186l-223 522h-185zM776 836v276q0 63 -47 109.5t-113 46.5h-213v-586h213q66 0 113 45.5t47 108.5z" glyph-name="R" unicode="R"/><glyph d="M1004 1073h-170q0 86 -62 150.5t-154 64.5t-154.5 -57t-62.5 -140t63.5 -143.5t155 -106.5t182.5 -100.5t154.5 -151.5t63.5 -243t-113.5 -256t-273.5 -110h-37q-162 0 -275.5 109.5t-113.5 266.5v56h174v-56q0 -90 63.5 -152.5t157.5 -62.5h23q92 0 155.5 58.5 t63.5 151.5t-63.5 166t-153.5 119t-181.5 96t-155 137t-63.5 210q0 160 114 267.5t275.5 107.5t274.5 -110.5t113 -270.5z" glyph-name="S" unicode="S"/><glyph d="M221 1270v164h787v-164h-306v-1270h-178v1270h-303z" glyph-name="T" unicode="T"/><glyph d="M844 1434h176v-1078q0 -156 -113.5 -266t-275.5 -110h-35q-162 0 -275.5 110.5t-113.5 267.5v1076h174v-1078q0 -90 63.5 -152.5t157.5 -62.5h23q94 0 156.5 61.5t62.5 151.5v1080z" glyph-name="U" unicode="U"/><glyph d="M391 1434v-592l203 -680h39l201 680v592h174v-609l-248 -825h-293l-248 821v613h172z" glyph-name="V" unicode="V"/><glyph d="M870 1434h177v-611l-82 -823h-289l-51 506h-25l-49 -506h-291l-80 823v611h174v-596l47 -672h33l60 536h237l57 -536h33l49 672v596z" glyph-name="W" unicode="W"/><glyph d="M375 1434l237 -508l240 508h188l-333 -689l362 -745h-188l-269 563l-266 -563h-188l360 745l-334 689h191z" glyph-name="X" unicode="X"/><glyph d="M702 0h-178v678l-372 756h190l272 -539l271 539h192l-375 -756v-678z" glyph-name="Y" unicode="Y"/><glyph d="M1008 162v-162h-791v172l588 1100h-557v162h762v-172l-590 -1100h588z" glyph-name="Z" unicode="Z"/><glyph d="M815 -205v-162h-403v1801h403v-166h-233v-1473h233z" glyph-name="bracketleft" unicode="["/><glyph d="M348 1434l701 -1803h-172l-699 1803h170z" glyph-name="backslash" unicode="\"/><glyph d="M412 -367v162h233v1473h-233v166h403v-1801h-403z" glyph-name="bracketright" unicode="]"/><glyph d="M545 1432h139l289 -756h-152l-211 541l-202 -541h-152z" glyph-name="asciicircum" unicode="^"/><glyph d="M2 -154h1225v-137h-1225v137z" glyph-name="underscore" unicode="_"/><glyph d="M860 1151h-182l-311 303h233z" glyph-name="grave" unicode="`"/><glyph d="M846 0v84q-29 -39 -99.5 -71.5t-134.5 -32.5h-39q-139 0 -245.5 92t-106.5 226t98.5 227t239.5 104l281 18v53q0 78 -55.5 136.5t-137.5 58.5h-20q-70 0 -128.5 -42t-68.5 -108h-162q14 127 120 213t245 86h20q162 0 257.5 -95t95.5 -236v-713h-160zM582 127h30 q90 0 159 63.5t69 131.5v178l-269 -19q-80 -6 -133 -56t-53 -123t60.5 -124t136.5 -51z" glyph-name="a" unicode="a"/><glyph d="M209 0v1434h158v-484q102 96 239 97h25q162 0 275.5 -111t113.5 -266v-314q0 -156 -113.5 -266t-275.5 -110h-29q-147 0 -240 92v-72h-153zM852 346v330q0 92 -65.5 156.5t-161.5 64.5h-23q-96 0 -162.5 -64.5t-66.5 -156.5v-328q0 -92 66.5 -157.5t162.5 -65.5h23 q96 0 161.5 64.5t65.5 156.5z" glyph-name="b" unicode="b"/><glyph d="M1006 682h-168q0 90 -56.5 152.5t-150.5 62.5h-23q-96 0 -162.5 -64.5t-66.5 -156.5v-328q0 -92 66.5 -157.5t162.5 -65.5h13q96 0 161.5 63.5t65.5 151.5h168q0 -145 -115 -252.5t-274 -107.5h-25q-162 0 -275.5 110.5t-113.5 267.5v312q0 158 113.5 267.5t275.5 109.5 h35q160 0 264.5 -105.5t104.5 -259.5z" glyph-name="c" unicode="c"/><glyph d="M1020 1434v-1434h-154v72q-92 -92 -239 -92h-29q-162 0 -275.5 110.5t-113.5 265.5v314q0 156 113.5 266.5t275.5 110.5h25q137 0 239 -97v484h158zM377 676v-330q0 -92 65.5 -156.5t161.5 -64.5h23q96 0 162.5 65.5t66.5 157.5v328q0 92 -66.5 156.5t-162.5 64.5h-23 q-96 0 -161.5 -64.5t-65.5 -156.5z" glyph-name="d" unicode="d"/><glyph d="M836 313h168q0 -125 -108 -229t-261 -104h-35q-162 0 -275.5 110.5t-113.5 267.5v312q0 158 113.5 266t275.5 108h37q162 0 271.5 -108.5t109.5 -265.5v-209h-641v-113q0 -92 66.5 -157.5t162.5 -65.5h23q90 0 148.5 60t58.5 128zM377 676v-66h479v66q0 92 -64.5 156.5 t-160.5 64.5h-25q-96 0 -162.5 -64.5t-66.5 -156.5z" glyph-name="e" unicode="e"/><glyph d="M586 0h-168v877h-228v147h228v84q0 141 102.5 243.5t249.5 102.5h25q74 0 134 -17.5t83 -35.5l24 -17l-90 -122q-47 43 -158 43h-12q-80 0 -135 -56.5t-55 -134.5v-90h383v-147h-383v-877z" glyph-name="f" unicode="f"/><glyph d="M379 123h53v205q-59 23 -118.5 93.5t-59.5 178.5v135q0 127 99.5 218t236.5 91q90 0 160 -40l65 83q43 59 205 60v-148q-98 0 -113 -22l-49 -68q63 -70 64 -174v-135q0 -123 -101.5 -218t-230.5 -95v-164h260q102 0 176 -70.5t74 -169.5v-14q0 -100 -74 -169t-178 -69 h-469q-104 0 -177 69t-73 169v14q0 98 73 169t177 71zM829 -10h-428q-51 0 -86.5 -34t-35.5 -81t35.5 -80t86.5 -33h426q51 0 87 34t36 81t-35 80t-86 33zM760 600v133q0 70 -50 117t-122 47t-123 -47t-51 -117v-133q0 -70 51 -117t122 -47t122 48t51 116z" glyph-name="g" unicode="g"/><glyph d="M1018 0h-166v676q0 94 -64.5 157.5t-163 63.5t-175 -66.5t-76.5 -144.5v-686h-164v1434h164v-490q104 100 266 100t270.5 -108.5t108.5 -265.5v-670z" glyph-name="h" unicode="h"/><glyph d="M201 877v147h512v-877h313v-147h-825v147h348v730h-348zM528 1251v183h189v-183h-189z" glyph-name="i" unicode="i"/><glyph d="M743 1251v183h185v-183h-185zM750 -49v923h-486v150h654v-1067q0 -141 -102.5 -243.5t-250.5 -102.5h-24q-74 0 -134.5 17.5t-82.5 35.5l-25 17l90 122q47 -43 158 -43h12q80 0 135.5 56.5t55.5 134.5z" glyph-name="j" unicode="j"/><glyph d="M193 0v1434h163v-1434h-163zM825 0l-469 541l447 483h209l-457 -485l479 -539h-209z" glyph-name="k" unicode="k"/><glyph d="M268 1286v148h422v-1287h328v-147h-807v147h315v1139h-258z" glyph-name="l" unicode="l"/><glyph d="M698 0h-159v786q0 45 -30 78t-84 33t-90 -49t-36 -121v-727h-164v1024h160v-76q63 92 172 92q53 0 91 -19.5t52.5 -38.5t32.5 -56q82 114 203 114t184.5 -76.5t63.5 -195.5v-768h-166v786q0 43 -31 77t-81 34t-84 -48t-34 -122v-727z" glyph-name="m" unicode="m"/><glyph d="M1018 0h-166v676q0 94 -64.5 157.5t-163 63.5t-175 -66.5t-76.5 -144.5v-686h-164v1024h160v-84q104 104 268 104t272.5 -108.5t108.5 -265.5v-670z" glyph-name="n" unicode="n"/><glyph d="M1020 670v-314q0 -156 -113.5 -266t-275.5 -110h-35q-162 0 -275.5 110.5t-113.5 267.5v312q0 158 113.5 267.5t275.5 109.5h35q162 0 275.5 -110.5t113.5 -266.5zM852 346v330q0 92 -65.5 156.5t-161.5 64.5h-23q-96 0 -162.5 -64.5t-66.5 -156.5v-328 q0 -92 66.5 -157.5t162.5 -65.5h23q96 0 161.5 64.5t65.5 156.5z" glyph-name="o" unicode="o"/><glyph d="M209 -369v1393h153v-72q92 92 240 92h29q162 0 275.5 -109.5t113.5 -264.5v-314q0 -158 -113.5 -268.5t-275.5 -110.5h-25q-137 0 -239 97v-443h-158zM852 348v330q0 92 -65.5 156.5t-161.5 64.5h-23q-96 0 -162.5 -65.5t-66.5 -157.5v-328q0 -92 66.5 -156.5 t162.5 -64.5h23q96 0 161.5 64.5t65.5 156.5z" glyph-name="p" unicode="p"/><glyph d="M1020 1024v-1393h-158v443q-102 -96 -239 -97h-25q-162 0 -275.5 111t-113.5 268v314q0 156 113.5 265t275.5 109h29q147 0 239 -92v72h154zM377 678v-330q0 -92 65.5 -156.5t161.5 -64.5h23q96 0 162.5 64.5t66.5 156.5v328q0 92 -66.5 157.5t-162.5 65.5h-23 q-96 0 -161.5 -64.5t-65.5 -156.5z" glyph-name="q" unicode="q"/><glyph d="M757 1044q146 0 231 -100t85 -213h-166q0 68 -45.5 117t-121.5 49t-142 -61.5t-66 -139.5v-549h429v-147h-807v147h215v877h159v-88q83 108 229 108z" glyph-name="r" unicode="r"/><glyph d="M981 731h-170q0 66 -49 116t-115 50h-39q-61 0 -107 -36t-46 -90t54 -93t131 -65.5t152.5 -60.5t130 -104.5t54.5 -182.5t-102.5 -198.5t-237.5 -86.5h-45q-150 0 -248 96t-98 223v25h164v-19q0 -72 56 -125t132 -53h37q72 0 123 43.5t51 105.5t-54.5 103t-132 68.5 t-154.5 60.5t-131 96.5t-54 155.5q0 125 94 204.5t231 79.5h39q154 0 244 -100t90 -213z" glyph-name="s" unicode="s"/><glyph d="M342 309v568h-188v147h188v291h166v-291h520v-147h-520v-555q0 -78 55 -136.5t137 -58.5h21q76 0 131 58.5t55 136.5h168q0 -152 -95 -248.5t-265 -96.5h-21q-162 0 -257 95.5t-95 236.5z" glyph-name="t" unicode="t"/><glyph d="M209 1024h166v-676q0 -94 64.5 -157.5t162.5 -63.5t175 66.5t77 144.5v686h164v-1024h-160v84q-104 -104 -268 -104t-272.5 108.5t-108.5 265.5v670z" glyph-name="u" unicode="u"/><glyph d="M410 1024v-385l182 -510h45l184 510v385h160v-387l-229 -637h-275l-231 637v387h164z" glyph-name="v" unicode="v"/><glyph d="M889 1024h164v-397l-90 -627h-265l-80 473h-10l-78 -473h-264l-90 627v397h164v-381l49 -493h31l90 507h205l94 -507h31l49 493v381z" glyph-name="w" unicode="w"/><glyph d="M393 1024l221 -356l220 356h190l-313 -500l323 -524h-186l-234 379l-233 -379h-186l321 524l-311 500h188z" glyph-name="x" unicode="x"/><glyph d="M334 1024l282 -782l279 782h176l-526 -1393h-166l145 402l-366 991h176z" glyph-name="y" unicode="y"/><glyph d="M1001 147v-147h-776v154l576 723h-547v147h739v-158l-573 -719h581z" glyph-name="z" unicode="z"/><glyph d="M870 -227v-162q-168 0 -284.5 110.5t-116.5 268.5v387q0 37 -33 63.5t-78 26.5v154q45 0 78 26.5t33 61.5v370q0 158 116.5 267.5t284.5 109.5v-166q-98 0 -163.5 -61.5t-65.5 -151.5v-348q0 -119 -119 -188q119 -66 119 -187v-366q0 -92 65.5 -153.5t163.5 -61.5z" glyph-name="braceleft" unicode="{"/><glyph d="M535 -369v1803h159v-1803h-159z" glyph-name="bar" unicode="|"/><glyph d="M358 -389v162q98 0 164 61.5t66 153.5v366q0 121 119 187q-119 70 -119 188v348q0 90 -65.5 151.5t-164.5 61.5v166q168 0 285 -109.5t117 -267.5v-370q0 -35 32.5 -61.5t77.5 -26.5v-154q-45 0 -77.5 -26.5t-32.5 -63.5v-387q0 -158 -117 -268.5t-285 -110.5z" glyph-name="braceright" unicode="}"/><glyph d="M414 733q74 0 211 -57.5t188 -57.5t83 31t42 68h158q-16 -100 -92 -177t-170 -77t-235.5 57.5t-185.5 57.5t-77 -30t-47 -69h-156q12 100 91 177t190 77z" glyph-name="asciitilde" unicode="~"/><glyph d="M514 823v201h201v-201h-201zM696 686v-1079h-166v1079h166z" glyph-name="exclamdown" unicode="¡"/><glyph d="M549 -100v100q-139 18 -223 110.5t-84 219.5v372q0 123 84 214.5t223 111.5v96h164v-102q119 -29 190.5 -118t71.5 -210h-162q0 82 -56.5 138.5t-141.5 56.5t-147 -60.5t-62 -138.5v-352q0 -78 61 -136.5t147 -58.5t146.5 59.5t60.5 143.5h164q0 -129 -73.5 -222 t-198.5 -120v-104h-164z" glyph-name="cent" unicode="¢"/><glyph d="M1018 166v-166h-742v166h58v412h-125v161h125v381q0 137 100.5 234.5t242.5 97.5t242.5 -97.5t100.5 -234.5v-80h-176v90q0 66 -48 113t-117 47t-118 -47t-49 -113v-391h258v-161h-258v-412h506z" glyph-name="sterling" unicode="£"/><glyph d="M613 164q-132 0 -242 74l-99 -97l-114 117l96 98q-74 113 -74 241t76 245l-98 98l114 115l99 -99q115 74 243 74t242 -74l98 99l117 -115l-98 -98q74 -113 74 -246t-72 -240l96 -98l-117 -117l-98 97q-111 -74 -243 -74zM612 326q112 0 192.5 80.5t80.5 191.5t-80 191.5 t-190.5 80.5t-192.5 -80.5t-82 -192.5t80 -191.5t192 -79.5z" glyph-name="currency" unicode="¤"/><glyph d="M1020 557v-160h-320v-397h-174v397h-319v160h319v119l-10 24h-309v162h235l-262 572h187l245 -560l252 560h185l-263 -572h234v-162h-309l-11 -20v-123h320z" glyph-name="yen" unicode="¥"/><glyph d="M535 690v746h159v-746h-159zM535 -369v742h159v-742h-159z" glyph-name="brokenbar" unicode="¦"/><glyph d="M279 299h167q0 -154 158 -154h10q76 0 113 34t37 81t-55.5 90t-134 79t-158.5 79t-135.5 116.5t-55.5 172.5q0 141 105 231q-41 59 -41 164t85 182.5t240 77.5h15q164 0 242.5 -86t78.5 -231h-170q0 152 -157 151h-9q-78 0 -114.5 -33.5t-36.5 -80.5t55 -90.5t135 -79 t160 -78.5t135.5 -117t55.5 -170q0 -137 -107 -234q43 -72 43 -149q0 -117 -86 -195.5t-240 -78.5h-14q-164 0 -242.5 86t-78.5 233zM831 624q0 64 -54 110t-171 102.5t-157 81.5q-53 -43 -53 -109t56 -113t170.5 -100t155.5 -80q53 44 53 108z" glyph-name="section" unicode="§"/><glyph d="M350 1251v183h182v-183h-182zM696 1251v183h183v-183h-183z" glyph-name="dieresis" unicode="¨"/><glyph d="M512 973v-236q0 -43 31 -76.5t75 -33.5t74.5 32.5t30.5 81.5h115q0 -100 -60.5 -168.5t-158.5 -68.5t-160 61.5t-62 153.5v274q0 88 61.5 150.5t157.5 62.5t154.5 -68.5t58.5 -166.5h-114q0 51 -26.5 82.5t-69.5 31.5t-75 -33.5t-32 -78.5zM596 354h35q133 0 233.5 102.5 t100.5 241.5v306q0 139 -100.5 240.5t-233.5 101.5h-35q-133 0 -234.5 -101.5t-101.5 -240.5v-306q0 -139 101.5 -241.5t234.5 -102.5zM596 1452h35q182 0 315 -136t133 -327v-278q0 -190 -133 -326.5t-315 -136.5h-35q-182 0 -315.5 136t-133.5 327v278q0 190 133.5 326.5 t315.5 136.5z" glyph-name="copyright" unicode="©"/><glyph d="M385 1257q29 197 250 197q109 0 174 -60.5t65 -154.5v-440h-135v41q-53 -52 -150 -52t-167 60.5t-70 146.5t71 143.5t173 67.5l139 13v14q0 39 -29.5 70.5t-76.5 31.5q-86 0 -101 -78h-143zM603 907q50 0 91 28t41 58v105l-133 -13q-47 -4 -80 -27.5t-33 -59.5t32 -63.5 t82 -27.5zM874 696v-118h-505v118h505z" glyph-name="ordfeminine" unicode="ª"/><glyph d="M651 272h-192l-250 324l250 326h190l-252 -326zM1018 272h-193l-250 324l250 326h191l-252 -326z" glyph-name="guillemotleft" unicode="«"/><glyph d="M1067 854v-573h-164v409h-743v164h907z" glyph-name="logicalnot" unicode="¬"/><glyph glyph-name="uni00AD" unicode="­"/><glyph d="M541 754v-224h-115v662h227q63 0 110.5 -50t47.5 -116v-102q0 -41 -21.5 -82t-52.5 -64l107 -248h-125l-94 224h-84zM694 909v111q0 18 -14 32.5t-31 14.5h-112v-203h112q18 0 31.5 13.5t13.5 31.5zM596 1454h35q182 0 315 -136t133 -327v-278q0 -190 -133 -326.5 t-315 -136.5h-35q-182 0 -315.5 136t-133.5 327v278q0 190 133.5 326.5t315.5 136.5zM596 356h35q133 0 233.5 102.5t100.5 241.5v306q0 139 -100.5 240.5t-233.5 101.5h-35q-133 0 -234.5 -101.5t-101.5 -240.5v-306q0 -139 101.5 -241.5t234.5 -102.5z" glyph-name="registered" unicode="®"/><glyph d="M305 1223v151h619v-151h-619z" glyph-name="macron" unicode="¯"/><glyph d="M315 1157q0 123 88.5 211t211 88t210.5 -88t88 -211t-88 -211t-210.5 -88t-211 88t-88.5 211zM449 1157.5q0 -67.5 48.5 -117t116.5 -49.5t116 49.5t48 117t-48 116.5t-117 49t-116.5 -49t-47.5 -116.5z" glyph-name="degree" unicode="°"/><glyph d="M528 1044h168v-262h383v-161h-383v-261h-168v261h-383v161h383v262zM1081 301v-162h-936v162h936z" glyph-name="plusminus" unicode="±"/><glyph d="M530 1208h-141q0 113 67.5 179.5t163.5 66.5t163 -61.5t67 -143.5t-47 -146.5t-152 -141t-121 -168.5h320v-131h-471v100q0 74 32.5 136.5t80 104t127 106t79.5 136.5q0 33 -22 55.5t-58 22.5t-62 -31t-26 -84z" glyph-name="uni00B2" unicode="²"/><glyph d="M422 1300v134h403v-107l-110 -143q55 -23 93 -73t38 -110v-133q0 -88 -67.5 -153.5t-157.5 -65.5h-13q-94 0 -160.5 63.5t-66.5 155.5v23h147v-23q0 -35 25 -60.5t61.5 -25.5t60 24.5t23.5 61.5v133q0 27 -15 44.5t-42 17.5h-106v115l96 122h-209z" glyph-name="uni00B3" unicode="³"/><glyph d="M549 1151h-182l260 303h233z" glyph-name="acute" unicode="´"/><glyph d="M205 -369v1393h160v-698q0 -82 56 -140.5t138 -58.5t147.5 57.5t65.5 134.5v705h160v-813q2 -25 22.5 -42t46.5 -17h21v-152h-21q-115 0 -192 100q-94 -121 -268 -120q-106 0 -179 69v-418h-157z" glyph-name="uni00B5" unicode="µ"/><glyph d="M569 -369v1008q-152 25 -255 133t-103 268t119 276t288 116h398v-1801h-160v1649h-127v-1649h-160z" glyph-name="paragraph" unicode="¶"/><glyph d="M514 496v200h201v-200h-201z" glyph-name="periodcentered" unicode="·"/><glyph d="M463 -369v107h123q18 0 30.5 15.5t12.5 33.5t-12.5 32.5t-30.5 14.5h-103v166h119v-57q66 0 115 -46.5t49 -110.5t-48 -109.5t-114 -45.5h-141z" glyph-name="cedilla" unicode="¸"/><glyph d="M479 1309v125h269v-772h-144v647h-125z" glyph-name="uni00B9" unicode="¹"/><glyph d="M850 1239v-238q0 -92 -65 -153.5t-169 -61.5t-171.5 61.5t-67.5 153.5v238q0 92 67.5 153.5t170.5 61.5t169 -61.5t66 -153.5zM723 1001v238q0 37 -32 65.5t-76 28.5t-74.5 -28.5t-30.5 -65.5v-238q0 -37 31.5 -67.5t74.5 -30.5t75 30.5t32 67.5zM850 696v-118h-459v118 h459z" glyph-name="ordmasculine" unicode="º"/><glyph d="M768 272h-193l254 324l-251 326h190l250 -326zM401 272h-192l254 324l-252 326h190l250 -326z" glyph-name="guillemotright" unicode="»"/><glyph d="M565 156v106l242 502h145l-227 -475h154v170h143v-170h68v-133h-68v-154h-143v154h-314zM139 1309v125h269v-772h-144v647h-125zM184 2l727 1430h109l-725 -1430h-111z" glyph-name="onequarter" unicode="¼"/><glyph d="M776 547h-141q0 113 67.5 179.5t162.5 66.5t163 -61.5t68 -143.5t-47.5 -146.5t-153 -142t-119.5 -168.5h320v-131h-471v100q0 141 79.5 212t159.5 135t80 137q0 33 -21.5 55.5t-58.5 22.5t-62.5 -31t-25.5 -84zM133 1309v125h268v-772h-143v647h-125zM135 2l727 1430 h109l-725 -1430h-111z" glyph-name="onehalf" unicode="½"/><glyph d="M154 1300v134h403v-107l-111 -143q55 -23 93.5 -73t38.5 -110v-133q0 -88 -68 -153.5t-158 -65.5h-12q-94 0 -160.5 63.5t-66.5 155.5v23h147v-23q0 -35 24.5 -60.5t61.5 -25.5t60.5 24.5t23.5 61.5v133q0 27 -15.5 44.5t-41.5 17.5h-107v115l96 122h-208zM233 2 l728 1430h108l-725 -1430h-111zM592 156v106l242 502h145l-227 -475h153v170h144v-170h67v-133h-67v-154h-144v154h-313z" glyph-name="threequarters" unicode="¾"/><glyph d="M829 -41h170q0 -176 -110.5 -281.5t-275.5 -105.5t-275.5 103.5t-110.5 282.5t83 262t165 168.5t82 297.5h170q0 -135 -34 -234.5t-81 -155.5t-128 -138t-81 -221q0 -86 61.5 -142.5t152.5 -56.5t151.5 60.5t60.5 160.5zM745 1024v-203h-206v203h206z" glyph-name="questiondown" unicode="¿"/><glyph d="M1008 0h-174v457h-443v-457h-172v612l248 822h293l248 -826v-608zM829 616l-196 656h-39l-195 -656h430zM782 1561h-182l-311 303h233z" glyph-name="Agrave" unicode="À"/><glyph d="M1008 0h-174v457h-443v-457h-172v612l248 822h293l248 -826v-608zM829 616l-196 656h-39l-195 -656h430zM633 1561h-182l260 303h233z" glyph-name="Aacute" unicode="Á"/><glyph d="M1008 0h-174v457h-443v-457h-172v612l248 822h293l248 -826v-608zM829 616l-196 656h-39l-195 -656h430zM463 1563h-148l217 301h156l221 -301h-149l-152 153z" glyph-name="Acircumflex" unicode="Â"/><glyph d="M1008 0h-174v457h-443v-457h-172v612l248 822h293l248 -826v-608zM829 616l-196 656h-39l-195 -656h430zM295 1589q0 84 60.5 156t138.5 72q51 0 133 -45.5t106 -45.5t37.5 26t13.5 52h148q0 -84 -60 -155.5t-124 -71.5t-146 45t-106 45q-47 0 -58 -78h-143z" glyph-name="Atilde" unicode="Ã"/><glyph d="M1008 0h-174v457h-443v-457h-172v612l248 822h293l248 -826v-608zM829 616l-196 656h-39l-195 -656h430zM348 1661v182h182v-182h-182zM694 1661v182h183v-182h-183z" glyph-name="Adieresis" unicode="Ä"/><glyph d="M1008 0h-174v457h-443v-457h-172v612l248 822h293l248 -826v-608zM829 616l-196 656h-39l-195 -656h430zM451 1701q0 69 46 116t113.5 47t115.5 -48t48 -116t-48 -115t-115.5 -47t-113.5 47t-46 116zM551 1703q0 -26 16.5 -43.5t43 -17.5t44 17.5t17.5 43.5t-17.5 43 t-44 17t-43 -17t-16.5 -43z" glyph-name="Aring" unicode="Å"/><glyph d="M1079 1434v-162h-329v-436h280v-160h-280v-514h335v-162h-512v457h-256v-457h-174v612l250 822h686zM573 616v656h-55l-192 -656h247z" glyph-name="AE" unicode="Æ"/><glyph d="M1008 397v-41q0 -141 -94.5 -246.5t-235.5 -125.5v-41q66 0 115 -46.5t49 -110.5t-48.5 -109.5t-113.5 -45.5h-141v107h123q18 0 30.5 15.5t12.5 33.5t-12.5 32.5t-30.5 14.5h-103v150q-145 16 -241.5 123.5t-96.5 250.5v719q0 158 114 267.5t275 109.5h11 q162 0 274.5 -110.5t112.5 -268.5h-172q0 88 -65 150.5t-157 62.5t-155.5 -61.5t-63.5 -151.5v-719q0 -90 63.5 -152.5t155.5 -62.5t157 62.5t65 150.5v43h172z" glyph-name="Ccedilla" unicode="Ç"/><glyph d="M256 1434h700v-162h-528v-436h479v-160h-479v-514h545v-162h-717v1434zM791 1561h-183l-311 303h233z" glyph-name="Egrave" unicode="È"/><glyph d="M256 1434h700v-162h-528v-436h479v-160h-479v-514h545v-162h-717v1434zM623 1561h-183l260 303h234z" glyph-name="Eacute" unicode="É"/><glyph d="M256 1434h700v-162h-528v-436h479v-160h-479v-514h545v-162h-717v1434zM438 1563h-147l217 301h156l221 -301h-150l-151 153z" glyph-name="Ecircumflex" unicode="Ê"/><glyph d="M256 1434h700v-162h-528v-436h479v-160h-479v-514h545v-162h-717v1434zM344 1661v182h182v-182h-182zM690 1661v182h182v-182h-182z" glyph-name="Edieresis" unicode="Ë"/><glyph d="M745 1561h-182l-311 303h233zM219 1274v160h791v-160h-310v-1114h310v-160h-791v160h309v1114h-309z" glyph-name="Igrave" unicode="Ì"/><glyph d="M668 1561h-183l260 303h234zM219 1274v160h791v-160h-310v-1114h310v-160h-791v160h309v1114h-309z" glyph-name="Iacute" unicode="Í"/><glyph d="M465 1563h-148l218 301h155l221 -301h-149l-152 153zM219 1274v160h791v-160h-310v-1114h310v-160h-791v160h309v1114h-309z" glyph-name="Icircumflex" unicode="Î"/><glyph d="M350 1661v182h182v-182h-182zM696 1661v182h183v-182h-183zM219 1274v160h791v-160h-310v-1114h310v-160h-791v160h309v1114h-309z" glyph-name="Idieresis" unicode="Ï"/><glyph d="M1059 1057v-680q0 -156 -114 -266.5t-275 -110.5h-379v676h-123v160h123v598h379q162 0 275.5 -110.5t113.5 -266.5zM680 836v-160h-215v-514h199q94 0 156.5 61.5t62.5 151.5v682q0 90 -62.5 152.5t-156.5 62.5h-199v-436h215z" glyph-name="Eth" unicode="Ð"/><glyph d="M836 1434h172v-1434h-193l-389 999l-39 125h-8l12 -135v-989h-172v1434h193l391 -1006l37 -123h8l-12 131v998zM299 1589q0 84 60.5 156t138.5 72q51 0 133 -45.5t106 -45.5t37.5 26t13.5 52h148q0 -84 -60 -155.5t-124 -71.5t-146 45t-106 45q-47 0 -58 -78h-143z" glyph-name="Ntilde" unicode="Ñ"/><glyph d="M1020 1077v-721q0 -156 -113.5 -266t-275.5 -110h-35q-162 0 -275.5 110.5t-113.5 267.5v719q0 158 113.5 267.5t275.5 109.5h35q162 0 275.5 -110.5t113.5 -266.5zM844 354v721q0 90 -62.5 151.5t-156.5 61.5h-23q-94 0 -157.5 -61.5t-63.5 -151.5v-719 q0 -90 63.5 -152.5t157.5 -62.5h23q94 0 156.5 61.5t62.5 151.5zM788 1561h-182l-311 303h233z" glyph-name="Ograve" unicode="Ò"/><glyph d="M1020 1077v-721q0 -156 -113.5 -266t-275.5 -110h-35q-162 0 -275.5 110.5t-113.5 267.5v719q0 158 113.5 267.5t275.5 109.5h35q162 0 275.5 -110.5t113.5 -266.5zM844 354v721q0 90 -62.5 151.5t-156.5 61.5h-23q-94 0 -157.5 -61.5t-63.5 -151.5v-719 q0 -90 63.5 -152.5t157.5 -62.5h23q94 0 156.5 61.5t62.5 151.5zM635 1561h-182l260 303h233z" glyph-name="Oacute" unicode="Ó"/><glyph d="M1020 1077v-721q0 -156 -113.5 -266t-275.5 -110h-35q-162 0 -275.5 110.5t-113.5 267.5v719q0 158 113.5 267.5t275.5 109.5h35q162 0 275.5 -110.5t113.5 -266.5zM844 354v721q0 90 -62.5 151.5t-156.5 61.5h-23q-94 0 -157.5 -61.5t-63.5 -151.5v-719 q0 -90 63.5 -152.5t157.5 -62.5h23q94 0 156.5 61.5t62.5 151.5zM463 1563h-148l217 301h156l221 -301h-149l-152 153z" glyph-name="Ocircumflex" unicode="Ô"/><glyph d="M1020 1077v-721q0 -156 -113.5 -266t-275.5 -110h-35q-162 0 -275.5 110.5t-113.5 267.5v719q0 158 113.5 267.5t275.5 109.5h35q162 0 275.5 -110.5t113.5 -266.5zM844 354v721q0 90 -62.5 151.5t-156.5 61.5h-23q-94 0 -157.5 -61.5t-63.5 -151.5v-719 q0 -90 63.5 -152.5t157.5 -62.5h23q94 0 156.5 61.5t62.5 151.5zM295 1589q0 84 60.5 156t138.5 72q51 0 133 -45.5t106 -45.5t37.5 26t13.5 52h148q0 -84 -60 -155.5t-124 -71.5t-146 45t-106 45q-47 0 -58 -78h-143z" glyph-name="Otilde" unicode="Õ"/><glyph d="M1020 1077v-721q0 -156 -113.5 -266t-275.5 -110h-35q-162 0 -275.5 110.5t-113.5 267.5v719q0 158 113.5 267.5t275.5 109.5h35q162 0 275.5 -110.5t113.5 -266.5zM844 354v721q0 90 -62.5 151.5t-156.5 61.5h-23q-94 0 -157.5 -61.5t-63.5 -151.5v-719 q0 -90 63.5 -152.5t157.5 -62.5h23q94 0 156.5 61.5t62.5 151.5zM346 1661v182h182v-182h-182zM692 1661v182h182v-182h-182z" glyph-name="Odieresis" unicode="Ö"/><glyph d="M217 881l115 114l282 -282l283 282l115 -114l-283 -285l283 -281l-115 -116l-283 284l-280 -282l-117 114l281 281z" glyph-name="multiply" unicode="×"/><glyph d="M207 1077q0 158 113.5 267.5t275.5 109.5h35q111 0 200 -55l17 35h172l-66 -148q66 -94 66 -209v-721q0 -156 -113.5 -266t-275.5 -110h-35q-111 0 -205 55l-14 -35h-170l65 145q-66 94 -65 213v719zM844 354v721l-19 -76l-364 -811q63 -47 141 -47h23q94 0 156.5 61.5 t62.5 151.5zM381 1075v-713l25 82l356 797q-61 47 -137 47h-23q-94 0 -157.5 -61.5t-63.5 -151.5z" glyph-name="Oslash" unicode="Ø"/><glyph d="M844 1434h176v-1078q0 -156 -113.5 -266t-275.5 -110h-35q-162 0 -275.5 110.5t-113.5 267.5v1076h174v-1078q0 -90 63.5 -152.5t157.5 -62.5h23q94 0 156.5 61.5t62.5 151.5v1080zM780 1561h-182l-311 303h233z" glyph-name="Ugrave" unicode="Ù"/><glyph d="M844 1434h176v-1078q0 -156 -113.5 -266t-275.5 -110h-35q-162 0 -275.5 110.5t-113.5 267.5v1076h174v-1078q0 -90 63.5 -152.5t157.5 -62.5h23q94 0 156.5 61.5t62.5 151.5v1080zM623 1561h-183l260 303h234z" glyph-name="Uacute" unicode="Ú"/><glyph d="M844 1434h176v-1078q0 -156 -113.5 -266t-275.5 -110h-35q-162 0 -275.5 110.5t-113.5 267.5v1076h174v-1078q0 -90 63.5 -152.5t157.5 -62.5h23q94 0 156.5 61.5t62.5 151.5v1080zM463 1563h-148l217 301h156l221 -301h-149l-152 153z" glyph-name="Ucircumflex" unicode="Û"/><glyph d="M844 1434h176v-1078q0 -156 -113.5 -266t-275.5 -110h-35q-162 0 -275.5 110.5t-113.5 267.5v1076h174v-1078q0 -90 63.5 -152.5t157.5 -62.5h23q94 0 156.5 61.5t62.5 151.5v1080zM348 1661v182h182v-182h-182zM694 1661v182h183v-182h-183z" glyph-name="Udieresis" unicode="Ü"/><glyph d="M702 0h-178v678l-372 756h190l272 -539l271 539h192l-375 -756v-678zM637 1561h-182l260 303h233z" glyph-name="Yacute" unicode="Ý"/><glyph d="M254 0v1434h172v-207h219q137 0 232.5 -93.5t95.5 -226.5v-297q0 -133 -95.5 -226t-232.5 -93h-219v-291h-172zM799 606v299q0 63 -47 109.5t-113 46.5h-213v-608h213q66 0 113 45t47 108z" glyph-name="Thorn" unicode="Þ"/><glyph d="M348 1073v-1073h-160v1075q0 158 106.5 267.5t258.5 109.5h16q150 0 253.5 -103.5t103.5 -240.5v-164q-90 -4 -153.5 -43t-63.5 -88t33.5 -95t81.5 -87t131 -120t83 -217t-89 -226t-216 -88t-216 88t-89 213v30h164v-41q0 -59 42 -101t100 -42t100.5 43t42.5 100.5 t-34 106.5t-83 89t-132 114t-83 225q0 96 63.5 164.5t157.5 89.5v14q0 100 -59.5 167t-146.5 67t-149.5 -68t-62.5 -166z" glyph-name="germandbls" unicode="ß"/><glyph d="M846 0v84q-29 -39 -99.5 -71.5t-134.5 -32.5h-39q-139 0 -245.5 92t-106.5 226t98.5 227t239.5 104l281 18v53q0 78 -55.5 136.5t-137.5 58.5h-20q-70 0 -128.5 -42t-68.5 -108h-162q14 127 120 213t245 86h20q162 0 257.5 -95t95.5 -236v-713h-160zM582 127h30 q90 0 159 63.5t69 131.5v178l-269 -19q-80 -6 -133 -56t-53 -123t60.5 -124t136.5 -51zM803 1151h-182l-312 303h234z" glyph-name="agrave" unicode="à"/><glyph d="M846 0v84q-29 -39 -99.5 -71.5t-134.5 -32.5h-39q-139 0 -245.5 92t-106.5 226t98.5 227t239.5 104l281 18v53q0 78 -55.5 136.5t-137.5 58.5h-20q-70 0 -128.5 -42t-68.5 -108h-162q14 127 120 213t245 86h20q162 0 257.5 -95t95.5 -236v-713h-160zM582 127h30 q90 0 159 63.5t69 131.5v178l-269 -19q-80 -6 -133 -56t-53 -123t60.5 -124t136.5 -51zM672 1151h-183l261 303h233z" glyph-name="aacute" unicode="á"/><glyph d="M846 0v84q-29 -39 -99.5 -71.5t-134.5 -32.5h-39q-139 0 -245.5 92t-106.5 226t98.5 227t239.5 104l281 18v53q0 78 -55.5 136.5t-137.5 58.5h-20q-70 0 -128.5 -42t-68.5 -108h-162q14 127 120 213t245 86h20q162 0 257.5 -95t95.5 -236v-713h-160zM582 127h30 q90 0 159 63.5t69 131.5v178l-269 -19q-80 -6 -133 -56t-53 -123t60.5 -124t136.5 -51zM500 1153h-148l217 301h156l221 -301h-149l-152 154z" glyph-name="acircumflex" unicode="â"/><glyph d="M846 0v84q-29 -39 -99.5 -71.5t-134.5 -32.5h-39q-139 0 -245.5 92t-106.5 226t98.5 227t239.5 104l281 18v53q0 78 -55.5 136.5t-137.5 58.5h-20q-70 0 -128.5 -42t-68.5 -108h-162q14 127 120 213t245 86h20q162 0 257.5 -95t95.5 -236v-713h-160zM582 127h30 q90 0 159 63.5t69 131.5v178l-269 -19q-80 -6 -133 -56t-53 -123t60.5 -124t136.5 -51zM528 1257q-45 0 -55 -77h-143q0 84 60.5 155.5t125.5 71.5t146.5 -45t105.5 -45t37.5 25.5t13.5 52.5h148q0 -84 -59.5 -156t-123.5 -72t-146.5 45t-109.5 45z" glyph-name="atilde" unicode="ã"/><glyph d="M846 0v84q-29 -39 -99.5 -71.5t-134.5 -32.5h-39q-139 0 -245.5 92t-106.5 226t98.5 227t239.5 104l281 18v53q0 78 -55.5 136.5t-137.5 58.5h-20q-70 0 -128.5 -42t-68.5 -108h-162q14 127 120 213t245 86h20q162 0 257.5 -95t95.5 -236v-713h-160zM582 127h30 q90 0 159 63.5t69 131.5v178l-269 -19q-80 -6 -133 -56t-53 -123t60.5 -124t136.5 -51zM385 1251v183h182v-183h-182zM731 1251v183h182v-183h-182z" glyph-name="adieresis" unicode="ä"/><glyph d="M846 0v84q-29 -39 -99.5 -71.5t-134.5 -32.5h-39q-139 0 -245.5 92t-106.5 226t98.5 227t239.5 104l281 18v53q0 78 -55.5 136.5t-137.5 58.5h-20q-70 0 -128.5 -42t-68.5 -108h-162q14 127 120 213t245 86h20q162 0 257.5 -95t95.5 -236v-713h-160zM582 127h30 q90 0 159 63.5t69 131.5v178l-269 -19q-80 -6 -133 -56t-53 -123t60.5 -124t136.5 -51zM487 1291q0 69 46.5 116t114 47t115.5 -47t48 -116t-48 -116t-115.5 -47t-114 47t-46.5 116zM588 1293q0 -26 16.5 -43t43 -17t44 17.5t17.5 43.5t-17.5 43t-44 17t-43 -17.5 t-16.5 -43.5z" glyph-name="aring" unicode="å"/><glyph d="M948 313h150v-53q0 -115 -83 -197.5t-192 -82.5q-74 0 -119 25.5t-86 82.5q-72 -109 -223 -108q-115 0 -190.5 91t-75.5 228t78 229.5t194 92.5h142v139q0 57 -36 96t-85 39q-121 0 -121 -152h-147q0 133 72.5 217t193.5 84t198 -110q41 55 86.5 82.5t118.5 27.5 q115 0 195 -81.5t80 -200.5v-289h-406v-215q0 -55 36 -92t91 -37t92 38t37 93v53zM402 129q57 0 99 38t42 91v215h-137q-61 0 -93 -48t-32 -124t32 -124t89 -48zM817 895q-55 0 -90 -38t-35 -95v-141h256v141q0 55 -38 94t-93 39z" glyph-name="ae" unicode="æ"/><glyph d="M1006 682h-168q0 90 -56.5 152.5t-150.5 62.5h-23q-96 0 -162.5 -64.5t-66.5 -156.5v-328q0 -92 66.5 -157.5t162.5 -65.5h13q96 0 161.5 63.5t65.5 151.5h168q0 -131 -95.5 -233.5t-234.5 -122.5v-41q66 0 115 -46.5t49 -110.5t-48 -109.5t-114 -45.5h-141v107h123 q18 0 30.5 15.5t12.5 33.5t-12.5 32.5t-30.5 14.5h-103v148q-152 12 -253 119.5t-101 256.5v312q0 158 113.5 267.5t275.5 109.5h35q160 0 264.5 -105.5t104.5 -259.5z" glyph-name="ccedilla" unicode="ç"/><glyph d="M836 313h168q0 -125 -108 -229t-261 -104h-35q-162 0 -275.5 110.5t-113.5 267.5v312q0 158 113.5 266t275.5 108h37q162 0 271.5 -108.5t109.5 -265.5v-209h-641v-113q0 -92 66.5 -157.5t162.5 -65.5h23q90 0 148.5 60t58.5 128zM377 676v-66h479v66q0 92 -64.5 156.5 t-160.5 64.5h-25q-96 0 -162.5 -64.5t-66.5 -156.5zM772 1151h-182l-311 303h233z" glyph-name="egrave" unicode="è"/><glyph d="M836 313h168q0 -125 -108 -229t-261 -104h-35q-162 0 -275.5 110.5t-113.5 267.5v312q0 158 113.5 266t275.5 108h37q162 0 271.5 -108.5t109.5 -265.5v-209h-641v-113q0 -92 66.5 -157.5t162.5 -65.5h23q90 0 148.5 60t58.5 128zM377 676v-66h479v66q0 92 -64.5 156.5 t-160.5 64.5h-25q-96 0 -162.5 -64.5t-66.5 -156.5zM635 1151h-182l260 303h233z" glyph-name="eacute" unicode="é"/><glyph d="M836 313h168q0 -125 -108 -229t-261 -104h-35q-162 0 -275.5 110.5t-113.5 267.5v312q0 158 113.5 266t275.5 108h37q162 0 271.5 -108.5t109.5 -265.5v-209h-641v-113q0 -92 66.5 -157.5t162.5 -65.5h23q90 0 148.5 60t58.5 128zM377 676v-66h479v66q0 92 -64.5 156.5 t-160.5 64.5h-25q-96 0 -162.5 -64.5t-66.5 -156.5zM463 1153h-148l217 301h156l221 -301h-149l-152 154z" glyph-name="ecircumflex" unicode="ê"/><glyph d="M836 313h168q0 -125 -108 -229t-261 -104h-35q-162 0 -275.5 110.5t-113.5 267.5v312q0 158 113.5 266t275.5 108h37q162 0 271.5 -108.5t109.5 -265.5v-209h-641v-113q0 -92 66.5 -157.5t162.5 -65.5h23q90 0 148.5 60t58.5 128zM377 676v-66h479v66q0 92 -64.5 156.5 t-160.5 64.5h-25q-96 0 -162.5 -64.5t-66.5 -156.5zM348 1251v183h182v-183h-182zM694 1251v183h183v-183h-183z" glyph-name="edieresis" unicode="ë"/><glyph d="M182 877v147h508v-877h320v-147h-828v147h344v730h-344zM743 1151h-182l-311 303h233z" glyph-name="igrave" unicode="ì"/><glyph d="M182 877v147h508v-877h318v-147h-826v147h344v730h-344zM627 1151h-183l261 303h233z" glyph-name="iacute" unicode="í"/><glyph d="M182 877v147h508v-877h320v-147h-828v147h344v730h-344zM453 1153h-148l217 301h156l221 -301h-149l-152 154z" glyph-name="icircumflex" unicode="î"/><glyph d="M182 877v147h508v-877h320v-147h-828v147h344v730h-344zM332 1251v183h182v-183h-182zM678 1251v183h182v-183h-182z" glyph-name="idieresis" unicode="ï"/><glyph d="M930 311q0 -141 -104.5 -236t-274.5 -95t-275.5 95t-105.5 236v324q0 141 106 236.5t260 95.5t226 -64v154l-2 26l-162 -53v141l115 39q-68 74 -162 74h-121v150h121q221 0 332 -166l174 57v-143l-131 -43q4 -12 4 -82v-746zM762 324v299q0 78 -61.5 136t-149.5 58 t-150.5 -58.5t-62.5 -135.5v-299q0 -78 62.5 -136.5t150.5 -58.5t149.5 58.5t61.5 136.5z" glyph-name="eth" unicode="ð"/><glyph d="M1018 0h-166v676q0 94 -64.5 157.5t-163 63.5t-175 -66.5t-76.5 -144.5v-686h-164v1024h160v-84q104 104 268 104t272.5 -108.5t108.5 -265.5v-670zM508 1257q-45 0 -55 -77h-144q0 84 60.5 155.5t126.5 71.5t147 -45t105 -45t37.5 25.5t13.5 52.5h147q0 -84 -59.5 -156 t-123.5 -72t-146 45t-109 45z" glyph-name="ntilde" unicode="ñ"/><glyph d="M1020 670v-314q0 -156 -113.5 -266t-275.5 -110h-35q-162 0 -275.5 110.5t-113.5 267.5v312q0 158 113.5 267.5t275.5 109.5h35q162 0 275.5 -110.5t113.5 -266.5zM852 346v330q0 92 -65.5 156.5t-161.5 64.5h-23q-96 0 -162.5 -64.5t-66.5 -156.5v-328 q0 -92 66.5 -157.5t162.5 -65.5h23q96 0 161.5 64.5t65.5 156.5zM795 1151h-183l-311 303h234z" glyph-name="ograve" unicode="ò"/><glyph d="M1020 670v-314q0 -156 -113.5 -266t-275.5 -110h-35q-162 0 -275.5 110.5t-113.5 267.5v312q0 158 113.5 267.5t275.5 109.5h35q162 0 275.5 -110.5t113.5 -266.5zM852 346v330q0 92 -65.5 156.5t-161.5 64.5h-23q-96 0 -162.5 -64.5t-66.5 -156.5v-328 q0 -92 66.5 -157.5t162.5 -65.5h23q96 0 161.5 64.5t65.5 156.5zM616 1151h-182l260 303h234z" glyph-name="oacute" unicode="ó"/><glyph d="M1020 670v-314q0 -156 -113.5 -266t-275.5 -110h-35q-162 0 -275.5 110.5t-113.5 267.5v312q0 158 113.5 267.5t275.5 109.5h35q162 0 275.5 -110.5t113.5 -266.5zM852 346v330q0 92 -65.5 156.5t-161.5 64.5h-23q-96 0 -162.5 -64.5t-66.5 -156.5v-328 q0 -92 66.5 -157.5t162.5 -65.5h23q96 0 161.5 64.5t65.5 156.5zM465 1153h-148l218 301h155l221 -301h-149l-152 154z" glyph-name="ocircumflex" unicode="ô"/><glyph d="M1020 670v-314q0 -156 -113.5 -266t-275.5 -110h-35q-162 0 -275.5 110.5t-113.5 267.5v312q0 158 113.5 267.5t275.5 109.5h35q162 0 275.5 -110.5t113.5 -266.5zM852 346v330q0 92 -65.5 156.5t-161.5 64.5h-23q-96 0 -162.5 -64.5t-66.5 -156.5v-328 q0 -92 66.5 -157.5t162.5 -65.5h23q96 0 161.5 64.5t65.5 156.5zM295 1180q0 84 60.5 155.5t138.5 71.5q51 0 133 -45t106 -45t37.5 25.5t13.5 52.5h148q0 -84 -60 -156t-124 -72t-146 45t-106 45q-48 0 -58 -77h-143z" glyph-name="otilde" unicode="õ"/><glyph d="M1020 670v-314q0 -156 -113.5 -266t-275.5 -110h-35q-162 0 -275.5 110.5t-113.5 267.5v312q0 158 113.5 267.5t275.5 109.5h35q162 0 275.5 -110.5t113.5 -266.5zM852 346v330q0 92 -65.5 156.5t-161.5 64.5h-23q-96 0 -162.5 -64.5t-66.5 -156.5v-328 q0 -92 66.5 -157.5t162.5 -65.5h23q96 0 161.5 64.5t65.5 156.5zM350 1251v183h182v-183h-182zM696 1251v183h183v-183h-183z" glyph-name="odieresis" unicode="ö"/><glyph d="M147 684h932v-164h-932v164zM512 176v203h207v-203h-207zM512 829v203h207v-203h-207z" glyph-name="divide" unicode="÷"/><glyph d="M995 713v-402q0 -141 -105.5 -236t-273.5 -95q-109 0 -186 38l-14 -18h-176l63 111q-70 86 -70 200v402q0 139 106.5 235t276.5 96q100 0 183 -38l12 18h178l-65 -113q71 -87 71 -198zM827 324v376l-4 29l-319 -571q48 -29 124 -29t137.5 58.5t61.5 136.5zM599 895 q-73 0 -135.5 -58.5t-62.5 -136.5v-376l2 -31l322 573q-53 29 -126 29z" glyph-name="oslash" unicode="ø"/><glyph d="M209 1024h166v-676q0 -94 64.5 -157.5t162.5 -63.5t175 66.5t77 144.5v686h164v-1024h-160v84q-104 -104 -268 -104t-272.5 108.5t-108.5 265.5v670zM797 1151h-183l-311 303h234z" glyph-name="ugrave" unicode="ù"/><glyph d="M209 1024h166v-676q0 -94 64.5 -157.5t162.5 -63.5t175 66.5t77 144.5v686h164v-1024h-160v84q-104 -104 -268 -104t-272.5 108.5t-108.5 265.5v670zM621 1151h-183l260 303h234z" glyph-name="uacute" unicode="ú"/><glyph d="M209 1024h166v-676q0 -94 64.5 -157.5t162.5 -63.5t175 66.5t77 144.5v686h164v-1024h-160v84q-104 -104 -268 -104t-272.5 108.5t-108.5 265.5v670zM473 1153h-147l217 301h155l222 -301h-150l-152 154z" glyph-name="ucircumflex" unicode="û"/><glyph d="M209 1024h166v-676q0 -94 64.5 -157.5t162.5 -63.5t175 66.5t77 144.5v686h164v-1024h-160v84q-104 -104 -268 -104t-272.5 108.5t-108.5 265.5v670zM358 1251v183h183v-183h-183zM705 1251v183h182v-183h-182z" glyph-name="udieresis" unicode="ü"/><glyph d="M334 1024l282 -782l279 782h176l-526 -1393h-166l145 402l-366 991h176zM633 1151h-182l260 303h233z" glyph-name="yacute" unicode="ý"/><glyph d="M209 -369v1803h160v-480q92 90 233 90h29q162 0 275.5 -109.5t113.5 -264.5v-314q0 -158 -113.5 -268.5t-275.5 -110.5h-25q-137 0 -239 97v-443h-158zM852 348v330q0 92 -65.5 156.5t-161.5 64.5h-23q-96 0 -162.5 -65.5t-66.5 -157.5v-328q0 -92 66.5 -156.5 t162.5 -64.5h23q96 0 161.5 64.5t65.5 156.5z" glyph-name="thorn" unicode="þ"/><glyph d="M334 1024l282 -782l279 782h176l-526 -1393h-166l145 402l-366 991h176zM350 1251v183h182v-183h-182zM696 1251v183h183v-183h-183z" glyph-name="ydieresis" unicode="ÿ"/><glyph d="M494 162h536v-162h-711v520l-122 -67v192l122 68v721h175v-623l303 170l-4 -195l-299 -170v-454z" glyph-name="Lslash" unicode="Ł"/><glyph d="M526 1286h-260v148h424v-543l146 82v-174l-146 -82v-570h328v-147h-807v147h315v478l-118 -66v176l118 66v485z" glyph-name="lslash" unicode="ł"/><glyph d="M522 1434h557v-164h-317v-432h268v-162h-268v-512h325v-164h-565q-162 0 -272.5 111.5t-110.5 271.5v670q0 160 110.5 270.5t272.5 110.5zM313 381q0 -92 61.5 -154.5t153.5 -62.5h58v1102h-58q-94 0 -154.5 -61.5t-60.5 -153.5v-670z" glyph-name="OE" unicode="Œ"/><glyph d="M948 313h150v-55q0 -115 -82 -196.5t-195 -81.5q-74 0 -119 24.5t-90 79.5q-45 -55 -90 -79.5t-116 -24.5q-111 0 -193 81.5t-82 196.5v508q0 117 79 197.5t196 80.5q72 0 116.5 -25.5t89.5 -82.5q45 57 90.5 82.5t118.5 25.5q117 0 197 -80.5t80 -197.5v-305h-410v-203 q0 -53 37 -91t92 -38t93 38t38 91v55zM537 258v508q0 53 -40.5 91t-92.5 38t-90 -38t-38 -91v-508q0 -53 37 -91t91 -38t93.5 38t39.5 91zM688 766v-156h260v156q0 53 -39 91t-92 38t-91 -38t-38 -91z" glyph-name="oe" unicode="œ"/><glyph d="M834 1073q0 86 -62 150.5t-154 64.5t-154.5 -57t-62.5 -140t63.5 -143.5t155 -106.5t182.5 -100.5t154.5 -151.5t63.5 -243t-113.5 -256t-273.5 -110h-37q-162 0 -275.5 109.5t-113.5 266.5v56h174v-56q0 -90 63.5 -152.5t157.5 -62.5h23q92 0 155.5 58.5t63.5 151.5 t-63.5 166t-153.5 119t-181.5 96t-155 137t-63.5 210q0 160 114 267.5t275.5 107.5t274.5 -110.5t113 -270.5h-170zM315 1864h148l145 -154l152 154h149l-221 -301h-156z" glyph-name="Scaron" unicode="Š"/><glyph d="M317 1454h148l145 -154l152 154h149l-221 -301h-155zM981 731h-170q0 66 -49 116t-115 50h-39q-61 0 -107 -36t-46 -90t54 -93t131 -65.5t152.5 -60.5t130 -104.5t54.5 -182.5t-102.5 -198.5t-237.5 -86.5h-45q-150 0 -248 96t-98 223v25h164v-19q0 -72 56 -125t132 -53 h37q72 0 123 43.5t51 105.5t-54.5 103t-132 68.5t-154.5 60.5t-131 96.5t-54 155.5q0 125 94 204.5t231 79.5h39q154 0 244 -100t90 -213z" glyph-name="scaron" unicode="š"/><glyph d="M702 0h-178v678l-372 756h190l272 -539l271 539h192l-375 -756v-678zM371 1661v182h182v-182h-182zM717 1661v182h182v-182h-182z" glyph-name="Ydieresis" unicode="Ÿ"/><glyph d="M1008 162v-162h-791v172l588 1100h-557v162h762v-172l-590 -1100h588zM315 1864h148l145 -154l152 154h149l-221 -301h-156z" glyph-name="Zcaron" unicode="Ž"/><glyph d="M346 1454h148l145 -154l152 154h149l-221 -301h-156zM1001 147v-147h-776v154l576 723h-547v147h739v-158l-573 -719h581z" glyph-name="zcaron" unicode="ž"/><glyph d="M303 879v145h232v147q0 119 82.5 201t186.5 82t200 -63l-93 -121q-51 35 -97 35t-83 -37t-37 -90v-154h260v-145h-260v-985q0 -119 -83 -201t-187 -82t-199 63l92 123q47 -37 95 -37t85.5 37t37.5 90v992h-232z" glyph-name="florin" unicode="ƒ"/><glyph d="M465 1153h-148l218 301h155l221 -301h-149l-152 154z" glyph-name="circumflex" unicode="ˆ"/><glyph d="M317 1454h148l145 -154l152 154h149l-221 -301h-155z" glyph-name="caron" unicode="ˇ"/><glyph d="M338 1434h154q0 -45 27.5 -79t62.5 -34h65q37 0 62.5 34t25.5 79h154q0 -109 -73 -184.5t-171 -75.5h-63q-100 0 -172 75.5t-72 184.5z" glyph-name="breve" unicode="˘"/><glyph d="M522 1251v183h183v-183h-183z" glyph-name="dotaccent" unicode="˙"/><glyph d="M453 1291q0 69 46 116t113.5 47t115.5 -47t48 -116t-48 -116t-115.5 -47t-113.5 47t-46 116zM553 1293q0 -26 16.5 -43t43 -17t44 17.5t17.5 43.5t-17.5 43t-44 17t-43 -17.5t-16.5 -43.5z" glyph-name="ring" unicode="˚"/><glyph d="M774 -219v-150h-129q-88 0 -140 54.5t-52 136.5q0 45 25.5 91t49.5 69l25 22h184q-127 -113 -127 -182q0 -16 12.5 -28.5t28.5 -12.5h123z" glyph-name="ogonek" unicode="˛"/><glyph d="M295 1180q0 84 60.5 155.5t138.5 71.5q51 0 133 -45t106 -45t37.5 25.5t13.5 52.5h148q0 -84 -60 -156t-124 -72t-146 45t-106 45q-48 0 -58 -77h-143z" glyph-name="tilde" unicode="˜"/><glyph d="M362 1151h-182l260 303h234zM737 1151h-182l260 303h234z" glyph-name="hungarumlaut" unicode="˝"/><glyph d="M1004 680v-160h-779v160h779z" glyph-name="endash" unicode="–"/><glyph d="M1229 680v-160h-1229v160h1229z" glyph-name="emdash" unicode="—"/><glyph d="M745 1434l-73 -439h-189l148 439h114z" glyph-name="quoteleft" unicode="‘"/><glyph d="M483 995l74 439h188l-147 -439h-115z" glyph-name="quoteright" unicode="’"/><glyph d="M483 -238l74 439h188l-147 -439h-115z" glyph-name="quotesinglbase" unicode="‚"/><glyph d="M901 1436l-74 -439h-188l147 439h115zM590 1436l-74 -439h-188l147 439h115z" glyph-name="quotedblleft" unicode="“"/><glyph d="M328 997l73 439h189l-148 -439h-114zM639 997l74 439h188l-147 -439h-115z" glyph-name="quotedblright" unicode="”"/><glyph d="M328 -238l73 439h189l-148 -439h-114zM639 -238l74 439h188l-147 -439h-115z" glyph-name="quotedblbase" unicode="„"/><glyph d="M936 1024v-158h-240v-1235h-170v1235h-233v158h233v410h170v-410h240z" glyph-name="dagger" unicode="†"/><glyph d="M936 160v-160h-240v-369h-170v369h-233v160h233v706h-233v158h233v410h170v-410h240v-158h-240v-706h240z" glyph-name="daggerdbl" unicode="‡"/><glyph d="M305 734q0 128 90 219t218 91t219.5 -91t91.5 -219t-91.5 -218t-219.5 -90t-218 90t-90 218z" glyph-name="bullet" unicode="•"/><glyph d="M106 0v201h201v-201h-201zM514 0v201h201v-201h-201zM922 0v201h200v-201h-200z" glyph-name="ellipsis" unicode="…"/><glyph d="M575 1239v-186q0 -90 -67.5 -151.5t-161.5 -61.5h-14q-92 0 -161 62.5t-69 150.5v186q0 90 68 152.5t162 62.5h14q94 0 161.5 -62.5t67.5 -152.5zM446 1053v186q0 43 -31.5 72.5t-76.5 29.5t-76 -29.5t-31 -72.5v-186q0 -43 32 -73t76 -30t75.5 30t31.5 73zM575 379v-186 q0 -90 -67.5 -151.5t-161.5 -61.5h-14q-92 0 -161 62t-69 151v186q0 90 68 152.5t162 62.5h14q94 0 161.5 -62.5t67.5 -152.5zM446 193v186q0 43 -31.5 72.5t-76.5 29.5t-76 -29.5t-31 -72.5v-186q0 -43 32 -73t76 -30t75.5 30t31.5 73zM1126 379v-186q0 -90 -67.5 -151.5 t-161.5 -61.5h-14q-92 0 -161 62t-69 151v186q0 90 67.5 152.5t162.5 62.5h14q94 0 161.5 -62.5t67.5 -152.5zM997 193v186q0 43 -31.5 72.5t-76.5 29.5t-76 -29.5t-31 -72.5v-186q0 -43 32 -73t76 -30t75.5 30t31.5 73zM102 702l1024 322v-113l-1024 -325v116z" glyph-name="perthousand" unicode="‰"/><glyph d="M836 272h-193l-250 324l250 326h191l-252 -326z" glyph-name="guilsinglleft" unicode="‹"/><glyph d="M586 272h-191l252 324l-254 326h193l250 -326z" glyph-name="guilsinglright" unicode="›"/><glyph d="M197 0l727 1434h108l-725 -1434h-110z" glyph-name="fraction" unicode="⁄"/><glyph d="M901 932v-162h-457v-117h394v-161h-394v-136q0 -90 63.5 -153.5t154 -63.5t154 62.5t63.5 152.5v25h172v-23q0 -158 -112 -267t-271 -109h-13q-160 0 -271.5 110.5t-111.5 267.5v134h-96v161h96v117h-96v162h96v145q0 158 112 267.5t271 109.5h13q162 0 272.5 -108.5 t110.5 -270.5h-172q0 90 -63.5 152.5t-154 62.5t-154 -62.5t-63.5 -152.5v-143h457z" glyph-name="Euro" unicode="€"/><glyph d="M141 1331v105h400v-105h-144v-583h-114v583h-142zM1087 1436v-688h-114v411l10 68l-96 -197h-90l-101 197l13 -70v-409h-113v688h113l133 -281l131 281h114z" glyph-name="trademark" unicode="™"/><glyph d="M1067 678v-164h-907v164h907z" glyph-name="minus" unicode="−"/><glyph d="M432 0h-160v877h-159v147h159v145q0 119 83 201t189 82t199 -63l-94 -123q-102 73 -159.5 18t-57.5 -108v-152h537v-874h147v-150h-450v150h141v727h-375v-877zM795 1249v185h188v-185h-188z" glyph-name="uniFB01" unicode="ﬁ"/><glyph d="M430 0h-160v877h-159v147h159v127q0 119 83 201t204 82h412v-1284h149v-150h-452v150h141v1132h-250q-53 0 -90 -37t-37 -88v-133h260v-147h-260v-877z" glyph-name="uniFB02" unicode="ﬂ"/></font>
</defs>
</svg>
