<?xml version="1.0" encoding="iso-8859-1"?>
<!-- Generator: Adobe Illustrator 18.1.1, SVG Export Plug-In . SVG Version: 6.00 Build 0)  -->
<svg version="1.1" id="Capa_1" xmlns="http://www.w3.org/2000/svg" xmlns:xlink="http://www.w3.org/1999/xlink" x="0px" y="0px"
	 viewBox="0 0 298.061 298.061" style="enable-background:new 0 0 298.061 298.061;" xml:space="preserve">
<g>
	<g>
		<g>
			<path style="fill:#ffffff;" d="M232.27,155.503c-7.767,0-14.082,6.315-14.082,14.076c0,7.756,6.315,14.071,14.082,14.071h37.66
				v76.805H28.136V183.65h40.396c7.772,0,14.087-6.315,14.087-14.071c0-7.762-6.315-14.076-14.087-14.076H0v133.099h298.061V155.503
				H232.27z"/>
		</g>
		<g>
			<path style="fill:#ffffff;" d="M159.854,13.919c-2.85-2.877-6.663-4.46-10.726-4.46c-0.033,0-0.076,0.005-0.109,0.016
				c-0.033-0.005-0.076-0.016-0.109-0.016c-3.987,0-7.887,1.615-10.704,4.433l-36.784,36.784c-2.861,2.861-4.444,6.668-4.444,10.715
				s1.583,7.854,4.449,10.715c5.722,5.722,15.681,5.727,21.419,0L133.752,61.2v157.738c0,8.354,6.799,15.148,15.159,15.148
				c8.36,0,15.153-6.793,15.153-15.148V60.972l11.134,11.134c5.722,5.722,15.692,5.722,21.414,0
				c2.872-2.861,4.449-6.668,4.449-10.715c0-4.052-1.577-7.854-4.438-10.715L159.854,13.919z"/>
		</g>
	</g>
</g>
<g>
</g>
<g>
</g>
<g>
</g>
<g>
</g>
<g>
</g>
<g>
</g>
<g>
</g>
<g>
</g>
<g>
</g>
<g>
</g>
<g>
</g>
<g>
</g>
<g>
</g>
<g>
</g>
<g>
</g>
</svg>
